<svg version="1.1" id="Layer_1" xmlns="http://www.w3.org/2000/svg" xmlns:xlink="http://www.w3.org/1999/xlink" x="0px" y="0px"
	 width="100%" viewBox="0 0 2000 1200" enable-background="new 0 0 2000 1200" xml:space="preserve">
<path fill="#000000" opacity="1.000000" stroke="none" 
	d="
M1345.000000,1201.000000 
	C896.666809,1201.000000 448.833588,1201.000000 1.000300,1201.000000 
	C1.000200,801.000244 1.000200,401.000519 1.000100,1.000569 
	C667.666199,1.000379 1334.332397,1.000379 2000.999023,1.000190 
	C2000.999268,400.999420 2000.999268,800.998840 2000.999634,1200.999146 
	C1782.500000,1201.000000 1564.000000,1201.000000 1345.000000,1201.000000 
M1117.750854,1162.861938 
	C1140.208252,1169.999268 1163.374023,1173.458374 1186.764160,1174.827271 
	C1207.779419,1176.057251 1228.886963,1175.215820 1249.696533,1171.825684 
	C1278.148438,1167.190552 1305.376587,1158.658936 1331.017456,1145.098267 
	C1353.432251,1133.243774 1373.428345,1118.195923 1391.562500,1100.693237 
	C1399.729980,1092.810181 1406.919189,1083.882324 1414.266479,1075.186890 
	C1429.097656,1057.634277 1441.222778,1038.217773 1451.933960,1017.980713 
	C1466.778564,989.934448 1478.642578,960.622375 1488.114746,930.300598 
	C1497.258789,901.029175 1505.125732,871.460144 1510.041382,841.187866 
	C1514.633423,812.908630 1519.161499,784.601807 1522.784302,756.188049 
	C1525.329590,736.224121 1526.485474,716.073242 1527.927734,695.981812 
	C1528.911621,682.274109 1529.537231,668.531372 1529.931519,654.792969 
	C1530.479858,635.690796 1530.890625,616.578552 1530.927246,597.469788 
	C1530.956299,582.349731 1530.464844,567.224060 1529.962524,552.108948 
	C1529.478027,537.536438 1528.860962,522.963440 1527.980835,508.410065 
	C1526.822632,489.256134 1525.568604,470.102692 1523.945435,450.983856 
	C1522.578003,434.877380 1521.045288,418.762054 1518.818726,402.757385 
	C1516.322632,384.816132 1513.738892,366.822205 1509.803711,349.160828 
	C1503.428345,320.548218 1496.964600,291.877716 1488.625000,263.799988 
	C1478.186523,228.655792 1463.988281,194.885178 1445.552612,163.021362 
	C1433.024780,141.368530 1418.956909,120.764915 1401.794312,102.600929 
	C1390.887695,91.058006 1379.024292,80.239983 1366.586304,70.360565 
	C1341.087524,50.107090 1312.192505,36.107449 1280.801880,27.458771 
	C1261.835327,22.233150 1242.482910,18.904572 1222.807495,18.082291 
	C1211.908813,17.626808 1200.958252,17.614683 1190.062378,18.102558 
	C1177.688354,18.656618 1165.098877,18.782831 1153.055054,21.277527 
	C1135.888794,24.833267 1118.801880,29.434881 1102.275391,35.272453 
	C1071.522949,46.135017 1044.558716,63.801521 1020.799438,85.947067 
	C1009.207947,96.751228 998.452637,108.667160 988.638245,121.119728 
	C966.666504,148.997849 949.819519,180.010376 936.154175,212.705246 
	C925.073547,239.216003 915.772461,266.361603 908.827393,294.278503 
	C905.768311,306.574738 902.653259,318.857056 899.563599,331.145660 
	C898.307983,320.368042 897.806946,309.642853 896.976807,298.943237 
	C895.788574,283.628601 894.908508,268.259979 892.893555,253.047272 
	C890.429138,234.440674 887.911438,215.741531 883.648438,197.495575 
	C876.886719,168.555099 867.570984,140.360077 853.051514,114.175331 
	C844.382629,98.541588 834.482239,83.768570 822.188049,70.726273 
	C811.570557,59.462761 799.596436,49.849934 786.334839,41.831314 
	C772.842712,33.673248 758.466736,27.545630 743.146362,24.001869 
	C732.271545,21.486423 721.204773,19.669987 710.139771,18.154493 
	C703.106079,17.191124 695.909546,16.954447 688.802429,17.115145 
	C681.390137,17.282743 673.908081,17.807913 666.615723,19.085514 
	C653.197083,21.436419 639.407288,23.059862 626.659851,27.522131 
	C608.010193,34.050453 589.948486,42.394798 571.990662,50.728767 
	C549.098328,61.352711 526.407227,72.563339 501.467804,77.449768 
	C486.009186,80.478615 470.282013,82.922363 454.580017,83.697556 
	C439.579010,84.438141 424.312317,83.736076 409.422394,81.734283 
	C392.890594,79.511765 376.194275,76.486137 360.413483,71.261330 
	C343.871124,65.784386 328.290497,57.368958 312.386017,50.028675 
	C309.300964,48.604839 305.586334,46.825565 304.065155,44.134499 
	C301.767059,40.069065 298.837860,39.964638 295.111603,39.967243 
	C230.445801,40.012478 165.779938,39.999882 101.114090,40.000263 
	C90.417839,40.000328 90.655952,40.091946 86.848694,50.071793 
	C79.322701,69.799423 77.096992,90.497482 76.207924,111.259636 
	C75.526718,127.167610 76.058853,143.201889 77.227470,159.093506 
	C78.360947,174.507309 80.586624,189.877045 83.068115,205.146637 
	C86.475861,226.115860 90.055244,247.084595 94.519798,267.847382 
	C99.458733,290.816254 105.280739,313.603119 111.082161,336.376556 
	C117.591934,361.930603 124.412689,387.406921 131.280640,412.867828 
	C136.385773,431.793640 142.092743,450.561127 146.967484,469.544037 
	C152.703186,491.879456 157.852905,514.365784 163.213531,536.796997 
	C168.428299,558.617859 172.558456,580.614197 170.920334,603.184326 
	C170.024338,615.529236 169.250626,628.027710 166.652252,640.075317 
	C160.538620,668.421753 153.831848,696.661743 146.494217,724.717102 
	C137.863510,757.716675 128.092743,790.416443 119.236694,823.359253 
	C113.125748,846.090942 107.595650,868.982300 102.054939,891.862610 
	C97.833191,909.296265 93.406334,926.714355 90.149757,944.338806 
	C86.139435,966.042297 82.934998,987.910461 79.988007,1009.789062 
	C78.094353,1023.847778 76.462715,1038.039062 76.218689,1052.196899 
	C75.939110,1068.417725 77.218300,1084.672363 78.018364,1100.902710 
	C78.796509,1116.688232 82.902733,1131.784790 88.156860,1146.591431 
	C89.768448,1151.132935 92.499825,1153.177734 98.042786,1153.168945 
	C233.374069,1152.952759 368.705780,1153.000122 504.037415,1153.000244 
	C506.149719,1153.000244 508.262024,1153.000366 511.000153,1153.000366 
	C511.000153,1150.054321 511.000122,1147.770874 511.000092,1145.487305 
	C510.999939,1044.155273 511.109833,942.822998 510.955353,841.491211 
	C510.872589,787.205933 510.430115,732.920349 509.922791,678.637085 
	C509.820862,667.729065 509.089355,656.788696 507.943237,645.937683 
	C506.298126,630.363159 504.500183,614.773132 501.879639,599.340454 
	C497.403320,572.979065 490.956116,547.031982 482.229858,521.750427 
	C475.373932,501.887634 468.277740,482.062317 460.170776,462.687988 
	C449.354095,436.837860 437.668365,411.342468 425.951263,385.880920 
	C417.118958,366.688080 407.388245,347.909027 398.537262,328.724396 
	C388.933929,307.908966 379.682800,286.924500 370.638580,265.859009 
	C351.728485,221.814301 340.415802,175.927872 338.033234,127.956573 
	C337.967865,126.640465 338.268951,125.306152 338.353729,124.442581 
	C348.572876,139.264542 358.454956,154.231964 368.995636,168.720230 
	C381.282745,185.608932 395.805695,200.548660 412.185486,213.475586 
	C430.917389,228.258774 451.291931,240.267197 473.855988,248.541611 
	C496.214539,256.740692 519.275391,260.896576 542.934082,261.895264 
	C550.857483,262.229736 558.971680,262.148407 566.752625,260.818176 
	C579.353821,258.663971 592.199158,256.552887 604.139893,252.216644 
	C627.054199,243.895432 646.727478,229.771179 664.256226,213.028091 
	C676.465759,201.365799 687.711914,188.682663 699.204468,176.285034 
	C713.574097,160.783813 727.702454,145.059235 742.039001,129.527039 
	C749.582397,121.354477 759.059937,115.859695 769.135986,111.543495 
	C776.246704,108.497520 783.852478,107.837051 791.462708,109.885857 
	C803.709412,113.182892 809.681763,122.546951 813.285583,133.620346 
	C817.183777,145.598175 819.028687,157.891815 817.068604,170.593918 
	C815.863281,178.405106 815.892334,186.436386 814.322205,194.156311 
	C808.687744,221.859421 796.021484,246.574432 780.572021,269.912933 
	C764.181763,294.672699 746.910645,318.858917 730.881470,343.845490 
	C713.253418,371.324402 699.593567,400.757721 691.255371,432.485199 
	C685.274353,455.243195 681.231384,478.462616 681.195496,501.884613 
	C680.865356,717.048096 681.000305,932.212280 681.014221,1147.376221 
	C681.014343,1149.132568 681.213684,1150.888916 681.315552,1152.571533 
	C754.140259,1152.571533 826.368469,1152.571533 899.022827,1152.571533 
	C899.022827,1055.417236 899.022827,958.690796 899.022827,860.919189 
	C899.934265,862.784729 900.515320,863.603638 900.751770,864.512146 
	C905.811035,883.950989 910.592957,903.465454 915.916809,922.831055 
	C923.598938,950.774841 934.319580,977.625366 946.968872,1003.647827 
	C958.754211,1027.893066 972.608521,1050.893188 989.393066,1072.151001 
	C1003.884155,1090.503906 1020.037964,1107.254639 1038.318115,1121.567017 
	C1061.872559,1140.008911 1088.234741,1153.776001 1117.750854,1162.861938 
M1882.775146,1091.860596 
	C1882.187134,1092.575562 1881.599121,1093.290527 1879.998169,1095.237427 
	C1879.998169,1086.400635 1880.107056,1078.994019 1879.976318,1071.591553 
	C1879.680298,1054.833496 1883.059570,1057.146729 1863.925171,1057.022827 
	C1860.107544,1056.998169 1858.993164,1059.234375 1859.024048,1062.432617 
	C1859.142456,1074.660400 1859.460693,1086.887329 1859.479858,1099.114868 
	C1859.505859,1115.763550 1859.263672,1132.412476 1859.255127,1149.061279 
	C1859.248413,1162.095337 1859.329712,1161.956299 1872.659058,1162.071533 
	C1877.181396,1162.110474 1880.563354,1161.493530 1880.326538,1154.400879 
	C1886.543945,1164.496338 1895.283936,1164.227783 1904.012451,1163.997681 
	C1904.844604,1163.975830 1905.680298,1164.026001 1906.509521,1163.971191 
	C1916.727417,1163.295410 1924.990967,1158.786377 1931.155029,1150.739136 
	C1938.092285,1141.681763 1939.219482,1131.091064 1939.070312,1120.024780 
	C1938.723389,1094.302979 1919.111938,1078.738037 1894.168579,1085.145630 
	C1890.235352,1086.156006 1886.836792,1089.247437 1882.775146,1091.860596 
M1741.256470,1027.534790 
	C1741.668823,1025.024780 1744.545654,1021.261536 1740.434082,1020.470642 
	C1735.148438,1019.453979 1729.504761,1020.143860 1724.031738,1020.423157 
	C1723.202637,1020.465454 1722.273560,1022.167542 1721.713623,1023.266418 
	C1718.451782,1029.666382 1712.712402,1033.316528 1706.588379,1032.752808 
	C1699.329834,1032.084473 1694.165161,1027.661011 1692.137207,1020.375122 
	C1690.209351,1013.449707 1690.496826,1013.058899 1697.787476,1013.047974 
	C1711.285278,1013.027832 1724.782959,1013.033569 1738.280762,1013.022644 
	C1741.076782,1013.020386 1743.671265,1012.881470 1743.976685,1009.077454 
	C1744.968018,996.732117 1742.180420,985.556824 1733.702637,976.245605 
	C1721.516724,962.861877 1689.989502,962.240112 1676.949951,982.080383 
	C1667.502075,996.455872 1667.320801,1011.832764 1673.275146,1027.377197 
	C1676.665161,1036.227295 1683.557129,1042.263184 1692.603882,1044.870239 
	C1698.080933,1046.448608 1704.032104,1046.895386 1709.776001,1046.932007 
	C1723.809814,1047.021484 1734.260254,1040.631714 1741.256470,1027.534790 
M1763.674072,1104.144775 
	C1763.973267,1105.270752 1764.330322,1106.385132 1764.562012,1107.524902 
	C1765.723145,1113.235840 1764.612305,1114.586670 1758.720459,1114.993286 
	C1754.911865,1115.255981 1751.071899,1115.435425 1747.320923,1116.084839 
	C1738.582886,1117.597290 1730.033203,1119.540894 1723.733521,1126.702026 
	C1714.826660,1136.826294 1716.884277,1153.243286 1727.905640,1160.393799 
	C1734.085205,1164.403076 1740.855957,1164.362183 1747.676636,1163.959839 
	C1754.509033,1163.556885 1761.160156,1162.361816 1765.087036,1155.108521 
	C1766.990234,1161.962158 1766.990112,1161.973877 1773.415405,1162.031128 
	C1776.247437,1162.056274 1779.080933,1161.976685 1781.912109,1162.027710 
	C1785.154907,1162.086060 1786.521240,1161.165527 1786.304688,1157.345093 
	C1785.598999,1144.895630 1785.393311,1132.416748 1785.059448,1119.947510 
	C1784.947998,1115.785156 1785.090820,1111.616455 1785.011963,1107.452637 
	C1784.814941,1097.055664 1779.310791,1089.214844 1769.502686,1086.039795 
	C1759.587769,1082.830200 1749.438110,1082.679443 1739.577271,1086.049072 
	C1731.171753,1088.921509 1724.863159,1094.374390 1722.353149,1103.374878 
	C1720.458740,1110.167969 1721.012939,1110.967529 1727.925903,1111.032593 
	C1730.424805,1111.056152 1732.932739,1110.896973 1735.421265,1111.057373 
	C1738.899170,1111.281738 1740.803955,1109.900391 1742.136353,1106.551514 
	C1745.844360,1097.231201 1756.587158,1095.757935 1763.674072,1104.144775 
M1597.401611,1084.001343 
	C1595.402466,1084.002075 1593.403076,1083.992554 1591.404053,1084.005371 
	C1575.118408,1084.109497 1560.546509,1094.919800 1557.271973,1110.756958 
	C1555.694092,1118.388428 1555.693237,1126.603027 1556.490845,1134.398926 
	C1557.354858,1142.843872 1561.902710,1149.942993 1568.505005,1155.599487 
	C1579.410278,1164.942627 1592.309326,1165.526733 1605.301270,1163.081177 
	C1611.228271,1161.965576 1617.305054,1158.837524 1622.100586,1155.075562 
	C1633.717163,1145.962891 1635.975586,1132.684570 1634.818848,1118.988892 
	C1633.022339,1097.714600 1618.587280,1084.469482 1597.401611,1084.001343 
M1701.539062,1086.000854 
	C1692.009155,1086.032349 1692.006714,1086.032349 1692.000610,1095.653931 
	C1691.994263,1105.651367 1692.384033,1115.670532 1691.829102,1125.637329 
	C1691.540405,1130.823242 1690.275635,1136.211670 1688.225586,1140.981689 
	C1685.225708,1147.960938 1679.965942,1150.007446 1671.678345,1148.850708 
	C1665.305054,1147.961548 1662.893188,1143.429810 1661.821045,1137.837646 
	C1661.354980,1135.406982 1661.054199,1132.905640 1661.038208,1130.434082 
	C1660.954712,1117.437866 1660.926880,1104.440674 1661.015015,1091.444580 
	C1661.040283,1087.698120 1659.663574,1085.842529 1655.750610,1085.998901 
	C1652.257202,1086.138428 1648.749390,1086.138672 1645.256104,1085.997803 
	C1641.349854,1085.840210 1639.961426,1087.677124 1639.984863,1091.432617 
	C1640.080811,1106.761353 1639.707153,1122.099976 1640.129272,1137.417847 
	C1640.613770,1154.992920 1650.202637,1163.883545 1667.584473,1164.029663 
	C1677.034668,1164.109131 1685.821411,1162.969482 1691.014771,1153.003540 
	C1693.347900,1162.000854 1693.347900,1162.000977 1702.717896,1161.999756 
	C1703.884277,1161.999634 1705.050781,1162.008057 1706.217041,1161.992676 
	C1712.619751,1161.907837 1712.994141,1161.599609 1713.006592,1155.143799 
	C1713.043823,1135.649658 1713.020386,1116.155518 1713.022583,1096.661377 
	C1713.023682,1086.012573 1713.025513,1086.012573 1701.539062,1086.000854 
M1592.808472,1011.946411 
	C1592.592896,1020.762512 1592.209473,1029.579102 1592.233765,1038.394409 
	C1592.245605,1042.665649 1594.032349,1045.683960 1599.248535,1045.049316 
	C1602.039551,1044.709717 1604.909180,1044.869263 1607.734619,1044.998047 
	C1611.631958,1045.175537 1613.058228,1043.331421 1613.012939,1039.571533 
	C1612.904541,1030.578735 1612.632202,1021.564026 1613.117798,1012.595642 
	C1613.473633,1006.026001 1614.301025,999.342590 1616.046753,993.021606 
	C1618.387329,984.546631 1625.138916,980.625061 1632.995239,981.954895 
	C1640.154419,983.166748 1643.917847,988.349121 1643.975098,997.352051 
	C1644.045166,1008.344666 1643.884033,1019.339478 1644.027222,1030.330688 
	C1644.246216,1047.132568 1641.287476,1044.787109 1659.506470,1045.008667 
	C1663.212158,1045.053589 1665.035034,1043.747559 1665.008057,1039.800415 
	C1664.904541,1024.644165 1665.260132,1009.477722 1664.803467,994.334412 
	C1664.601440,987.629822 1663.812378,980.792786 1658.813232,975.243225 
	C1650.578247,966.101074 1640.046387,966.333496 1629.272827,967.481689 
	C1622.708740,968.181335 1617.673828,971.778381 1613.844360,977.945435 
	C1611.801392,967.996399 1613.632812,969.294617 1603.401611,969.014648 
	C1601.072266,968.950867 1598.632812,968.632935 1596.445557,969.204102 
	C1595.061035,969.565613 1593.047241,971.337891 1593.025391,972.509460 
	C1592.783081,985.422668 1592.876343,998.342224 1592.808472,1011.946411 
M1772.598267,993.950195 
	C1766.769409,989.895447 1769.815186,982.824646 1774.645142,981.396240 
	C1779.696167,979.902344 1785.023682,981.512146 1786.884766,986.384888 
	C1788.762085,991.300476 1791.850708,992.454590 1796.489990,992.048767 
	C1799.302490,991.802917 1802.156494,991.863953 1804.983032,991.986694 
	C1808.856445,992.154724 1810.088989,989.715820 1808.730225,986.949829 
	C1806.367554,982.140015 1803.971924,976.845581 1800.133179,973.357849 
	C1789.682251,963.862366 1768.150146,965.440674 1757.701416,972.227234 
	C1747.465332,978.875671 1745.651733,996.175659 1754.284180,1004.779114 
	C1760.503296,1010.977417 1768.873657,1012.347412 1776.702881,1015.056091 
	C1780.694458,1016.437012 1784.762207,1018.284302 1788.029419,1020.883606 
	C1791.417969,1023.579529 1790.521851,1028.618774 1787.007935,1031.225098 
	C1781.825195,1035.069336 1771.640747,1033.330200 1769.019165,1027.466553 
	C1766.627686,1022.118042 1763.169067,1020.310791 1757.699829,1020.958801 
	C1755.397949,1021.231445 1753.038940,1021.056885 1750.706665,1021.029114 
	C1746.472290,1020.978577 1745.525391,1023.239136 1746.526611,1026.893066 
	C1748.573853,1034.364258 1752.794800,1040.270386 1759.971924,1043.332886 
	C1772.797852,1048.805786 1785.881958,1048.836548 1798.776367,1043.534546 
	C1806.593872,1040.320068 1810.539185,1034.106689 1810.984497,1025.652344 
	C1811.465088,1016.530457 1808.383423,1009.255432 1799.952881,1005.004883 
	C1796.118530,1003.071655 1792.038940,1001.612183 1788.030029,1000.041199 
	C1783.099609,998.109314 1778.126953,996.285461 1772.598267,993.950195 
M1795.998657,1142.500000 
	C1795.984863,1150.821655 1796.104004,1159.146240 1795.914551,1167.463867 
	C1795.767700,1173.907837 1793.688965,1176.231201 1787.441406,1176.931396 
	C1784.313354,1177.282104 1782.943848,1178.606323 1783.031006,1181.666748 
	C1783.092651,1183.828247 1782.604248,1186.144287 1783.240723,1188.105835 
	C1783.727295,1189.605103 1785.575317,1191.706543 1786.844849,1191.725464 
	C1792.121582,1191.804199 1797.553345,1191.836792 1802.657715,1190.686523 
	C1810.144409,1188.999268 1814.718140,1183.715088 1815.787598,1176.065918 
	C1816.567017,1170.492188 1816.911011,1164.819336 1816.949463,1159.187256 
	C1817.083740,1139.548950 1817.086914,1119.908569 1816.973267,1100.269897 
	C1816.879395,1084.050903 1819.203735,1086.137085 1802.606689,1086.029419 
	C1796.470093,1085.989624 1796.036011,1086.465820 1796.019775,1092.568237 
	C1795.976318,1108.878662 1796.000977,1125.189453 1795.998657,1142.500000 
M1827.072266,1093.360840 
	C1827.060303,1097.427612 1827.036987,1101.494507 1827.038208,1105.561279 
	C1827.043579,1122.871582 1826.952026,1140.183594 1827.249146,1157.488892 
	C1827.274780,1158.983765 1829.702881,1161.400635 1831.331421,1161.707275 
	C1834.874268,1162.374146 1838.630493,1161.803467 1842.283081,1162.017944 
	C1846.710938,1162.278076 1848.084473,1160.192749 1848.034912,1156.021606 
	C1847.890259,1143.864258 1847.994385,1131.704102 1847.993896,1119.545044 
	C1847.993530,1110.217529 1848.146240,1100.884644 1847.834595,1091.567383 
	C1847.773560,1089.739014 1846.040283,1086.541626 1844.833008,1086.420532 
	C1839.289795,1085.864380 1833.659424,1086.175781 1828.104614,1086.175781 
	C1827.753906,1088.794189 1827.492920,1090.743164 1827.072266,1093.360840 
M1580.995850,1007.500000 
	C1580.995728,999.669983 1581.095581,991.838501 1580.975098,984.010315 
	C1580.709473,966.765442 1583.786377,969.270325 1565.321411,968.970886 
	C1560.944092,968.899902 1560.118042,971.076477 1560.202515,974.782410 
	C1560.485596,987.192810 1560.747803,999.606934 1560.748169,1012.019592 
	C1560.748535,1020.673523 1560.182373,1029.326294 1560.106934,1037.981689 
	C1560.058960,1043.465942 1561.735229,1044.907715 1567.320190,1044.982788 
	C1569.651978,1045.014282 1571.985107,1045.014771 1574.316895,1044.984375 
	C1580.503296,1044.903809 1580.941772,1044.526367 1580.973999,1038.487183 
	C1581.027222,1028.491821 1580.993042,1018.495789 1580.995850,1007.500000 
M1812.442139,1058.869385 
	C1810.852051,1058.403687 1809.290405,1057.752686 1807.667114,1057.504883 
	C1800.937134,1056.477295 1796.186279,1059.969849 1795.220581,1066.521851 
	C1794.314941,1072.666992 1798.132446,1078.008911 1804.044312,1078.868774 
	C1809.761963,1079.700439 1814.755127,1077.683594 1816.408081,1073.557983 
	C1818.027100,1069.517090 1818.342773,1062.581543 1812.442139,1058.869385 
M1837.597534,1078.944702 
	C1844.670288,1078.411621 1848.078247,1075.688110 1848.870728,1069.935059 
	C1849.599854,1064.642456 1847.340576,1060.384521 1842.826904,1058.544556 
	C1837.377441,1056.323120 1831.544678,1057.694580 1828.537476,1061.904175 
	C1823.656494,1068.736450 1827.626587,1076.937012 1837.597534,1078.944702 
M1576.085693,960.899292 
	C1581.393311,957.674072 1583.441650,952.168762 1581.299072,946.888123 
	C1579.291748,941.940491 1573.467285,939.586609 1566.892456,941.065979 
	C1562.185425,942.125122 1559.785889,946.036377 1560.037231,952.240601 
	C1560.344238,959.820618 1566.332153,963.323975 1576.085693,960.899292 
M1692.885864,946.002197 
	C1691.080200,946.178589 1689.274536,946.354980 1687.468872,946.531372 
	C1687.177612,947.124756 1686.886475,947.718201 1686.595215,948.311584 
	C1690.755249,952.060425 1694.980713,955.739563 1699.056274,959.577942 
	C1703.120728,963.405945 1708.505737,964.257507 1714.246582,961.485107 
	C1713.175659,959.640564 1711.879272,957.918274 1711.105713,955.986572 
	C1707.926636,948.048096 1702.406372,944.368591 1692.885864,946.002197 
z"/>
<path fill="#9B001C" opacity="1.000000" stroke="none" 
	d="
M1117.387573,1162.689697 
	C1088.234741,1153.776001 1061.872559,1140.008911 1038.318115,1121.567017 
	C1020.037964,1107.254639 1003.884155,1090.503906 989.393066,1072.151001 
	C972.608521,1050.893188 958.754211,1027.893066 946.968872,1003.647827 
	C934.319580,977.625366 923.598938,950.774841 915.916809,922.831055 
	C910.592957,903.465454 905.811035,883.950989 900.751770,864.512146 
	C900.515320,863.603638 899.934265,862.784729 899.022827,860.919189 
	C899.022827,958.690796 899.022827,1055.417236 899.022827,1152.571533 
	C826.368469,1152.571533 754.140259,1152.571533 681.315552,1152.571533 
	C681.213684,1150.888916 681.014343,1149.132568 681.014221,1147.376221 
	C681.000305,932.212280 680.865356,717.048096 681.195496,501.884613 
	C681.231384,478.462616 685.274353,455.243195 691.255371,432.485199 
	C699.593567,400.757721 713.253418,371.324402 730.881470,343.845490 
	C746.910645,318.858917 764.181763,294.672699 780.572021,269.912933 
	C796.021484,246.574432 808.687744,221.859421 814.322205,194.156311 
	C815.892334,186.436386 815.863281,178.405106 817.068604,170.593918 
	C819.028687,157.891815 817.183777,145.598175 813.285583,133.620346 
	C809.681763,122.546951 803.709412,113.182892 791.462708,109.885857 
	C783.852478,107.837051 776.246704,108.497520 769.135986,111.543495 
	C759.059937,115.859695 749.582397,121.354477 742.039001,129.527039 
	C727.702454,145.059235 713.574097,160.783813 699.204468,176.285034 
	C687.711914,188.682663 676.465759,201.365799 664.256226,213.028091 
	C646.727478,229.771179 627.054199,243.895432 604.139893,252.216644 
	C592.199158,256.552887 579.353821,258.663971 566.752625,260.818176 
	C558.971680,262.148407 550.857483,262.229736 542.934082,261.895264 
	C519.275391,260.896576 496.214539,256.740692 473.855988,248.541611 
	C451.291931,240.267197 430.917389,228.258774 412.185486,213.475586 
	C395.805695,200.548660 381.282745,185.608932 368.995636,168.720230 
	C358.454956,154.231964 348.572876,139.264542 338.353729,124.442581 
	C338.268951,125.306152 337.967865,126.640465 338.033234,127.956573 
	C340.415802,175.927872 351.728485,221.814301 370.638580,265.859009 
	C379.682800,286.924500 388.933929,307.908966 398.537262,328.724396 
	C407.388245,347.909027 417.118958,366.688080 425.951263,385.880920 
	C437.668365,411.342468 449.354095,436.837860 460.170776,462.687988 
	C468.277740,482.062317 475.373932,501.887634 482.229858,521.750427 
	C490.956116,547.031982 497.403320,572.979065 501.879639,599.340454 
	C504.500183,614.773132 506.298126,630.363159 507.943237,645.937683 
	C509.089355,656.788696 509.820862,667.729065 509.922791,678.637085 
	C510.430115,732.920349 510.872589,787.205933 510.955353,841.491211 
	C511.109833,942.822998 510.999939,1044.155273 511.000092,1145.487305 
	C511.000122,1147.770874 511.000153,1150.054321 511.000153,1153.000366 
	C508.262024,1153.000366 506.149719,1153.000244 504.037415,1153.000244 
	C368.705780,1153.000122 233.374069,1152.952759 98.042786,1153.168945 
	C92.499825,1153.177734 89.768448,1151.132935 88.156860,1146.591431 
	C82.902733,1131.784790 78.796509,1116.688232 78.018364,1100.902710 
	C77.218300,1084.672363 75.939110,1068.417725 76.218689,1052.196899 
	C76.462715,1038.039062 78.094353,1023.847778 79.988007,1009.789062 
	C82.934998,987.910461 86.139435,966.042297 90.149757,944.338806 
	C93.406334,926.714355 97.833191,909.296265 102.054939,891.862610 
	C107.595650,868.982300 113.125748,846.090942 119.236694,823.359253 
	C128.092743,790.416443 137.863510,757.716675 146.494217,724.717102 
	C153.831848,696.661743 160.538620,668.421753 166.652252,640.075317 
	C169.250626,628.027710 170.024338,615.529236 170.920334,603.184326 
	C172.558456,580.614197 168.428299,558.617859 163.213531,536.796997 
	C157.852905,514.365784 152.703186,491.879456 146.967484,469.544037 
	C142.092743,450.561127 136.385773,431.793640 131.280640,412.867828 
	C124.412689,387.406921 117.591934,361.930603 111.082161,336.376556 
	C105.280739,313.603119 99.458733,290.816254 94.519798,267.847382 
	C90.055244,247.084595 86.475861,226.115860 83.068115,205.146637 
	C80.586624,189.877045 78.360947,174.507309 77.227470,159.093506 
	C76.058853,143.201889 75.526718,127.167610 76.207924,111.259636 
	C77.096992,90.497482 79.322701,69.799423 86.848694,50.071793 
	C90.655952,40.091946 90.417839,40.000328 101.114090,40.000263 
	C165.779938,39.999882 230.445801,40.012478 295.111603,39.967243 
	C298.837860,39.964638 301.767059,40.069065 304.065155,44.134499 
	C305.586334,46.825565 309.300964,48.604839 312.386017,50.028675 
	C328.290497,57.368958 343.871124,65.784386 360.413483,71.261330 
	C376.194275,76.486137 392.890594,79.511765 409.422394,81.734283 
	C424.312317,83.736076 439.579010,84.438141 454.580017,83.697556 
	C470.282013,82.922363 486.009186,80.478615 501.467804,77.449768 
	C526.407227,72.563339 549.098328,61.352711 571.990662,50.728767 
	C589.948486,42.394798 608.010193,34.050453 626.659851,27.522131 
	C639.407288,23.059862 653.197083,21.436419 666.615723,19.085514 
	C673.908081,17.807913 681.390137,17.282743 688.802429,17.115145 
	C695.909546,16.954447 703.106079,17.191124 710.139771,18.154493 
	C721.204773,19.669987 732.271545,21.486423 743.146362,24.001869 
	C758.466736,27.545630 772.842712,33.673248 786.334839,41.831314 
	C799.596436,49.849934 811.570557,59.462761 822.188049,70.726273 
	C834.482239,83.768570 844.382629,98.541588 853.051514,114.175331 
	C867.570984,140.360077 876.886719,168.555099 883.648438,197.495575 
	C887.911438,215.741531 890.429138,234.440674 892.893555,253.047272 
	C894.908508,268.259979 895.788574,283.628601 896.976807,298.943237 
	C897.806946,309.642853 898.307983,320.368042 899.563599,331.145660 
	C902.653259,318.857056 905.768311,306.574738 908.827393,294.278503 
	C915.772461,266.361603 925.073547,239.216003 936.154175,212.705246 
	C949.819519,180.010376 966.666504,148.997849 988.638245,121.119728 
	C998.452637,108.667160 1009.207947,96.751228 1020.799438,85.947067 
	C1044.558716,63.801521 1071.522949,46.135017 1102.275391,35.272453 
	C1118.801880,29.434881 1135.888794,24.833267 1153.055054,21.277527 
	C1165.098877,18.782831 1177.688354,18.656618 1190.062378,18.102558 
	C1200.958252,17.614683 1211.908813,17.626808 1222.807495,18.082291 
	C1242.482910,18.904572 1261.835327,22.233150 1280.801880,27.458771 
	C1312.192505,36.107449 1341.087524,50.107090 1366.586304,70.360565 
	C1379.024292,80.239983 1390.887695,91.058006 1401.794312,102.600929 
	C1418.956909,120.764915 1433.024780,141.368530 1445.552612,163.021362 
	C1463.988281,194.885178 1478.186523,228.655792 1488.625000,263.799988 
	C1496.964600,291.877716 1503.428345,320.548218 1509.803711,349.160828 
	C1513.738892,366.822205 1516.322632,384.816132 1518.818726,402.757385 
	C1521.045288,418.762054 1522.578003,434.877380 1523.945435,450.983856 
	C1525.568604,470.102692 1526.822632,489.256134 1527.980835,508.410065 
	C1528.860962,522.963440 1529.478027,537.536438 1529.962524,552.108948 
	C1530.464844,567.224060 1530.956299,582.349731 1530.927246,597.469788 
	C1530.890625,616.578552 1530.479858,635.690796 1529.931519,654.792969 
	C1529.537231,668.531372 1528.911621,682.274109 1527.927734,695.981812 
	C1526.485474,716.073242 1525.329590,736.224121 1522.784302,756.188049 
	C1519.161499,784.601807 1514.633423,812.908630 1510.041382,841.187866 
	C1505.125732,871.460144 1497.258789,901.029175 1488.114746,930.300598 
	C1478.642578,960.622375 1466.778564,989.934448 1451.933960,1017.980713 
	C1441.222778,1038.217773 1429.097656,1057.634277 1414.266479,1075.186890 
	C1406.919189,1083.882324 1399.729980,1092.810181 1391.562500,1100.693237 
	C1373.428345,1118.195923 1353.432251,1133.243774 1331.017456,1145.098267 
	C1305.376587,1158.658936 1278.148438,1167.190552 1249.696533,1171.825684 
	C1228.886963,1175.215820 1207.779419,1176.057251 1186.764160,1174.827271 
	C1163.374023,1173.458374 1140.208252,1169.999268 1117.387573,1162.689697 
M1081.877563,503.695496 
	C1085.700806,519.016113 1089.441040,534.358032 1093.365479,549.652649 
	C1100.916138,579.080627 1105.807739,609.003662 1108.781982,639.171631 
	C1110.761963,659.254272 1111.295532,679.500366 1111.916138,699.690552 
	C1112.584229,721.427002 1112.403076,743.191772 1108.891357,764.737915 
	C1104.106812,794.094604 1094.739868,822.042908 1081.589233,848.655457 
	C1071.657715,868.753845 1060.865723,888.425537 1050.797241,908.458252 
	C1038.020386,933.879761 1030.391724,960.433777 1032.877319,989.388855 
	C1034.381348,1006.907593 1039.017090,1023.434143 1046.658691,1039.064575 
	C1055.498047,1057.144775 1067.967896,1072.481201 1083.655884,1085.222412 
	C1108.050659,1105.034912 1136.265625,1115.435303 1167.211182,1117.748169 
	C1185.016113,1119.078857 1202.999512,1118.570923 1220.753784,1115.057495 
	C1240.962891,1111.058105 1260.058472,1104.026367 1277.611084,1093.479370 
	C1293.060303,1084.196411 1306.997925,1072.887329 1318.767456,1058.889771 
	C1329.323486,1046.335449 1339.044556,1033.282227 1346.025513,1018.490051 
	C1351.270020,1007.377197 1355.612793,995.798584 1359.734375,984.205933 
	C1365.230469,968.747559 1368.143066,952.549683 1368.749390,936.282837 
	C1369.466431,917.045105 1368.963623,897.701782 1367.838623,878.471558 
	C1366.576538,856.893372 1364.722412,835.296692 1361.832520,813.882568 
	C1359.239380,794.667419 1355.648926,775.508240 1351.146729,756.647095 
	C1343.777100,725.773132 1335.180664,695.194031 1327.364014,664.423828 
	C1323.599365,649.604675 1319.756104,634.750061 1317.164917,619.702026 
	C1313.783081,600.061401 1311.204468,580.257263 1309.034668,560.440918 
	C1307.145386,543.187622 1305.459961,525.831116 1305.220093,508.499023 
	C1304.940186,488.274353 1305.603516,467.967834 1307.239502,447.808990 
	C1308.376709,433.795624 1310.860596,419.708893 1314.485718,406.119873 
	C1321.100830,381.322937 1331.565552,357.940643 1343.346436,335.132446 
	C1353.818237,314.858887 1364.595703,294.687073 1373.837891,273.849243 
	C1384.863037,248.991562 1388.143921,222.630692 1382.708740,195.817154 
	C1376.040771,162.920471 1359.875732,135.404129 1333.630615,114.116440 
	C1307.426025,92.861626 1277.016724,82.801422 1243.704468,81.130905 
	C1233.458740,80.617119 1223.033081,80.869759 1212.873047,82.185974 
	C1200.214111,83.825920 1187.432617,85.908501 1175.263428,89.629669 
	C1154.468506,95.988518 1135.646729,106.294838 1118.828857,120.504440 
	C1108.787720,128.988358 1099.475952,138.048691 1091.504395,148.320023 
	C1075.353394,169.130615 1063.196899,192.239639 1056.806519,217.846268 
	C1052.871460,233.613724 1049.140015,249.787048 1048.421875,265.916382 
	C1047.420166,288.413055 1048.879028,311.063324 1050.125488,333.601379 
	C1051.035767,350.059845 1052.683960,366.535706 1055.121826,382.836487 
	C1058.068115,402.536560 1061.647705,422.181488 1065.960571,441.626831 
	C1070.525391,462.207550 1076.274292,482.525665 1081.877563,503.695496 
M294.000092,693.500000 
	C294.000092,559.683167 294.000092,425.866394 294.000092,292.049561 
	C292.602478,294.058899 292.375244,296.167053 291.848175,298.197357 
	C283.490295,330.390961 275.255615,362.617828 266.656891,394.747223 
	C259.337097,422.098022 251.292053,449.256409 244.122833,476.645203 
	C238.413498,498.456635 233.040039,520.383545 228.474487,542.457153 
	C225.443161,557.113037 223.274628,572.057922 222.189423,586.980286 
	C220.485062,610.416138 224.281113,633.470276 229.936890,656.179871 
	C238.574738,690.863525 247.188950,725.555237 256.189209,760.145630 
	C262.823486,785.643127 270.183350,810.950989 276.986511,836.405701 
	C282.642822,857.569336 287.959076,878.823975 293.425964,900.038269 
	C293.617401,900.010254 293.808807,899.982300 294.000214,899.954285 
	C294.000214,831.469543 294.000214,762.984741 294.000092,693.500000 
z"/>
<path fill="#4A011B" opacity="1.000000" stroke="none" 
	d="
M1882.983154,1091.618652 
	C1886.836792,1089.247437 1890.235352,1086.156006 1894.168579,1085.145630 
	C1919.111938,1078.738037 1938.723389,1094.302979 1939.070312,1120.024780 
	C1939.219482,1131.091064 1938.092285,1141.681763 1931.155029,1150.739136 
	C1924.990967,1158.786377 1916.727417,1163.295410 1906.509521,1163.971191 
	C1905.680298,1164.026001 1904.844604,1163.975830 1904.012451,1163.997681 
	C1895.283936,1164.227783 1886.543945,1164.496338 1880.326538,1154.400879 
	C1880.563354,1161.493530 1877.181396,1162.110474 1872.659058,1162.071533 
	C1859.329712,1161.956299 1859.248413,1162.095337 1859.255127,1149.061279 
	C1859.263672,1132.412476 1859.505859,1115.763550 1859.479858,1099.114868 
	C1859.460693,1086.887329 1859.142456,1074.660400 1859.024048,1062.432617 
	C1858.993164,1059.234375 1860.107544,1056.998169 1863.925171,1057.022827 
	C1883.059570,1057.146729 1879.680298,1054.833496 1879.976318,1071.591553 
	C1880.107056,1078.994019 1879.998169,1086.400635 1879.998169,1095.237427 
	C1881.599121,1093.290527 1882.187134,1092.575562 1882.983154,1091.618652 
M1915.531128,1137.764893 
	C1918.561035,1129.016479 1919.010620,1120.195679 1915.913452,1111.394043 
	C1911.046143,1097.562378 1895.489990,1094.105835 1885.707520,1104.951660 
	C1878.721191,1112.697144 1879.409668,1122.458862 1880.563599,1131.932373 
	C1881.425415,1139.007935 1884.382080,1145.054321 1891.580688,1147.870972 
	C1901.663940,1151.816528 1908.847168,1148.899658 1915.531128,1137.764893 
z"/>
<path fill="#420118" opacity="1.000000" stroke="none" 
	d="
M1741.103882,1027.881226 
	C1734.260254,1040.631714 1723.809814,1047.021484 1709.776001,1046.932007 
	C1704.032104,1046.895386 1698.080933,1046.448608 1692.603882,1044.870239 
	C1683.557129,1042.263184 1676.665161,1036.227295 1673.275146,1027.377197 
	C1667.320801,1011.832764 1667.502075,996.455872 1676.949951,982.080383 
	C1689.989502,962.240112 1721.516724,962.861877 1733.702637,976.245605 
	C1742.180420,985.556824 1744.968018,996.732117 1743.976685,1009.077454 
	C1743.671265,1012.881470 1741.076782,1013.020386 1738.280762,1013.022644 
	C1724.782959,1013.033569 1711.285278,1013.027832 1697.787476,1013.047974 
	C1690.496826,1013.058899 1690.209351,1013.449707 1692.137207,1020.375122 
	C1694.165161,1027.661011 1699.329834,1032.084473 1706.588379,1032.752808 
	C1712.712402,1033.316528 1718.451782,1029.666382 1721.713623,1023.266418 
	C1722.273560,1022.167542 1723.202637,1020.465454 1724.031738,1020.423157 
	C1729.504761,1020.143860 1735.148438,1019.453979 1740.434082,1020.470642 
	C1744.545654,1021.261536 1741.668823,1025.024780 1741.103882,1027.881226 
z"/>
<path fill="#410118" opacity="1.000000" stroke="none" 
	d="
M1763.521118,1103.785889 
	C1756.587158,1095.757935 1745.844360,1097.231201 1742.136353,1106.551514 
	C1740.803955,1109.900391 1738.899170,1111.281738 1735.421265,1111.057373 
	C1732.932739,1110.896973 1730.424805,1111.056152 1727.925903,1111.032593 
	C1721.012939,1110.967529 1720.458740,1110.167969 1722.353149,1103.374878 
	C1724.863159,1094.374390 1731.171753,1088.921509 1739.577271,1086.049072 
	C1749.438110,1082.679443 1759.587769,1082.830200 1769.502686,1086.039795 
	C1779.310791,1089.214844 1784.814941,1097.055664 1785.011963,1107.452637 
	C1785.090820,1111.616455 1784.947998,1115.785156 1785.059448,1119.947510 
	C1785.393311,1132.416748 1785.598999,1144.895630 1786.304688,1157.345093 
	C1786.521240,1161.165527 1785.154907,1162.086060 1781.912109,1162.027710 
	C1779.080933,1161.976685 1776.247437,1162.056274 1773.415405,1162.031128 
	C1766.990112,1161.973877 1766.990234,1161.962158 1765.087036,1155.108521 
	C1761.160156,1162.361816 1754.509033,1163.556885 1747.676636,1163.959839 
	C1740.855957,1164.362183 1734.085205,1164.403076 1727.905640,1160.393799 
	C1716.884277,1153.243286 1714.826660,1136.826294 1723.733521,1126.702026 
	C1730.033203,1119.540894 1738.582886,1117.597290 1747.320923,1116.084839 
	C1751.071899,1115.435425 1754.911865,1115.255981 1758.720459,1114.993286 
	C1764.612305,1114.586670 1765.723145,1113.235840 1764.562012,1107.524902 
	C1764.330322,1106.385132 1763.973267,1105.270752 1763.521118,1103.785889 
z"/>
<path fill="#49011B" opacity="1.000000" stroke="none" 
	d="
M1597.878418,1084.002197 
	C1618.587280,1084.469482 1633.022339,1097.714600 1634.818848,1118.988892 
	C1635.975586,1132.684570 1633.717163,1145.962891 1622.100586,1155.075562 
	C1617.305054,1158.837524 1611.228271,1161.965576 1605.301270,1163.081177 
	C1592.309326,1165.526733 1579.410278,1164.942627 1568.505005,1155.599487 
	C1561.902710,1149.942993 1557.354858,1142.843872 1556.490845,1134.398926 
	C1555.693237,1126.603027 1555.694092,1118.388428 1557.271973,1110.756958 
	C1560.546509,1094.919800 1575.118408,1084.109497 1591.404053,1084.005371 
	C1593.403076,1083.992554 1595.402466,1084.002075 1597.878418,1084.002197 
M1613.929077,1125.324707 
	C1613.632446,1118.470947 1613.018311,1111.696289 1608.902100,1105.830322 
	C1602.046143,1096.060303 1587.136719,1096.147339 1581.174561,1106.469238 
	C1574.923462,1117.291260 1575.575439,1128.811646 1580.145874,1140.132446 
	C1582.763062,1146.614746 1588.423096,1149.250366 1594.880127,1149.491211 
	C1600.624512,1149.705444 1606.053955,1147.465332 1608.648926,1142.070312 
	C1611.041504,1137.095947 1612.184082,1131.520508 1613.929077,1125.324707 
z"/>
<path fill="#49011B" opacity="1.000000" stroke="none" 
	d="
M1702.019531,1086.000732 
	C1713.025513,1086.012573 1713.023682,1086.012573 1713.022583,1096.661377 
	C1713.020386,1116.155518 1713.043823,1135.649658 1713.006592,1155.143799 
	C1712.994141,1161.599609 1712.619751,1161.907837 1706.217041,1161.992676 
	C1705.050781,1162.008057 1703.884277,1161.999634 1702.717896,1161.999756 
	C1693.347900,1162.000977 1693.347900,1162.000854 1691.014771,1153.003540 
	C1685.821411,1162.969482 1677.034668,1164.109131 1667.584473,1164.029663 
	C1650.202637,1163.883545 1640.613770,1154.992920 1640.129272,1137.417847 
	C1639.707153,1122.099976 1640.080811,1106.761353 1639.984863,1091.432617 
	C1639.961426,1087.677124 1641.349854,1085.840210 1645.256104,1085.997803 
	C1648.749390,1086.138672 1652.257202,1086.138428 1655.750610,1085.998901 
	C1659.663574,1085.842529 1661.040283,1087.698120 1661.015015,1091.444580 
	C1660.926880,1104.440674 1660.954712,1117.437866 1661.038208,1130.434082 
	C1661.054199,1132.905640 1661.354980,1135.406982 1661.821045,1137.837646 
	C1662.893188,1143.429810 1665.305054,1147.961548 1671.678345,1148.850708 
	C1679.965942,1150.007446 1685.225708,1147.960938 1688.225586,1140.981689 
	C1690.275635,1136.211670 1691.540405,1130.823242 1691.829102,1125.637329 
	C1692.384033,1115.670532 1691.994263,1105.651367 1692.000610,1095.653931 
	C1692.006714,1086.032349 1692.009155,1086.032349 1702.019531,1086.000732 
z"/>
<path fill="#49011B" opacity="1.000000" stroke="none" 
	d="
M1592.843506,1011.603210 
	C1592.876343,998.342224 1592.783081,985.422668 1593.025391,972.509460 
	C1593.047241,971.337891 1595.061035,969.565613 1596.445557,969.204102 
	C1598.632812,968.632935 1601.072266,968.950867 1603.401611,969.014648 
	C1613.632812,969.294617 1611.801392,967.996399 1613.844360,977.945435 
	C1617.673828,971.778381 1622.708740,968.181335 1629.272827,967.481689 
	C1640.046387,966.333496 1650.578247,966.101074 1658.813232,975.243225 
	C1663.812378,980.792786 1664.601440,987.629822 1664.803467,994.334412 
	C1665.260132,1009.477722 1664.904541,1024.644165 1665.008057,1039.800415 
	C1665.035034,1043.747559 1663.212158,1045.053589 1659.506470,1045.008667 
	C1641.287476,1044.787109 1644.246216,1047.132568 1644.027222,1030.330688 
	C1643.884033,1019.339478 1644.045166,1008.344666 1643.975098,997.352051 
	C1643.917847,988.349121 1640.154419,983.166748 1632.995239,981.954895 
	C1625.138916,980.625061 1618.387329,984.546631 1616.046753,993.021606 
	C1614.301025,999.342590 1613.473633,1006.026001 1613.117798,1012.595642 
	C1612.632202,1021.564026 1612.904541,1030.578735 1613.012939,1039.571533 
	C1613.058228,1043.331421 1611.631958,1045.175537 1607.734619,1044.998047 
	C1604.909180,1044.869263 1602.039551,1044.709717 1599.248535,1045.049316 
	C1594.032349,1045.683960 1592.245605,1042.665649 1592.233765,1038.394409 
	C1592.209473,1029.579102 1592.592896,1020.762512 1592.843506,1011.603210 
z"/>
<path fill="#49011B" opacity="1.000000" stroke="none" 
	d="
M1772.885376,994.182495 
	C1778.126953,996.285461 1783.099609,998.109314 1788.030029,1000.041199 
	C1792.038940,1001.612183 1796.118530,1003.071655 1799.952881,1005.004883 
	C1808.383423,1009.255432 1811.465088,1016.530457 1810.984497,1025.652344 
	C1810.539185,1034.106689 1806.593872,1040.320068 1798.776367,1043.534546 
	C1785.881958,1048.836548 1772.797852,1048.805786 1759.971924,1043.332886 
	C1752.794800,1040.270386 1748.573853,1034.364258 1746.526611,1026.893066 
	C1745.525391,1023.239136 1746.472290,1020.978577 1750.706665,1021.029114 
	C1753.038940,1021.056885 1755.397949,1021.231445 1757.699829,1020.958801 
	C1763.169067,1020.310791 1766.627686,1022.118042 1769.019165,1027.466553 
	C1771.640747,1033.330200 1781.825195,1035.069336 1787.007935,1031.225098 
	C1790.521851,1028.618774 1791.417969,1023.579529 1788.029419,1020.883606 
	C1784.762207,1018.284302 1780.694458,1016.437012 1776.702881,1015.056091 
	C1768.873657,1012.347412 1760.503296,1010.977417 1754.284180,1004.779114 
	C1745.651733,996.175659 1747.465332,978.875671 1757.701416,972.227234 
	C1768.150146,965.440674 1789.682251,963.862366 1800.133179,973.357849 
	C1803.971924,976.845581 1806.367554,982.140015 1808.730225,986.949829 
	C1810.088989,989.715820 1808.856445,992.154724 1804.983032,991.986694 
	C1802.156494,991.863953 1799.302490,991.802917 1796.489990,992.048767 
	C1791.850708,992.454590 1788.762085,991.300476 1786.884766,986.384888 
	C1785.023682,981.512146 1779.696167,979.902344 1774.645142,981.396240 
	C1769.815186,982.824646 1766.769409,989.895447 1772.885376,994.182495 
z"/>
<path fill="#49011B" opacity="1.000000" stroke="none" 
	d="
M1795.998779,1142.000000 
	C1796.000977,1125.189453 1795.976318,1108.878662 1796.019775,1092.568237 
	C1796.036011,1086.465820 1796.470093,1085.989624 1802.606689,1086.029419 
	C1819.203735,1086.137085 1816.879395,1084.050903 1816.973267,1100.269897 
	C1817.086914,1119.908569 1817.083740,1139.548950 1816.949463,1159.187256 
	C1816.911011,1164.819336 1816.567017,1170.492188 1815.787598,1176.065918 
	C1814.718140,1183.715088 1810.144409,1188.999268 1802.657715,1190.686523 
	C1797.553345,1191.836792 1792.121582,1191.804199 1786.844849,1191.725464 
	C1785.575317,1191.706543 1783.727295,1189.605103 1783.240723,1188.105835 
	C1782.604248,1186.144287 1783.092651,1183.828247 1783.031006,1181.666748 
	C1782.943848,1178.606323 1784.313354,1177.282104 1787.441406,1176.931396 
	C1793.688965,1176.231201 1795.767700,1173.907837 1795.914551,1167.463867 
	C1796.104004,1159.146240 1795.984863,1150.821655 1795.998779,1142.000000 
z"/>
<path fill="#4A011A" opacity="1.000000" stroke="none" 
	d="
M1827.152100,1093.026489 
	C1827.492920,1090.743164 1827.753906,1088.794189 1828.104614,1086.175781 
	C1833.659424,1086.175781 1839.289795,1085.864380 1844.833008,1086.420532 
	C1846.040283,1086.541626 1847.773560,1089.739014 1847.834595,1091.567383 
	C1848.146240,1100.884644 1847.993530,1110.217529 1847.993896,1119.545044 
	C1847.994385,1131.704102 1847.890259,1143.864258 1848.034912,1156.021606 
	C1848.084473,1160.192749 1846.710938,1162.278076 1842.283081,1162.017944 
	C1838.630493,1161.803467 1834.874268,1162.374146 1831.331421,1161.707275 
	C1829.702881,1161.400635 1827.274780,1158.983765 1827.249146,1157.488892 
	C1826.952026,1140.183594 1827.043579,1122.871582 1827.038208,1105.561279 
	C1827.036987,1101.494507 1827.060303,1097.427612 1827.152100,1093.026489 
z"/>
<path fill="#4A011B" opacity="1.000000" stroke="none" 
	d="
M1580.995850,1008.000000 
	C1580.993042,1018.495789 1581.027222,1028.491821 1580.973999,1038.487183 
	C1580.941772,1044.526367 1580.503296,1044.903809 1574.316895,1044.984375 
	C1571.985107,1045.014771 1569.651978,1045.014282 1567.320190,1044.982788 
	C1561.735229,1044.907715 1560.058960,1043.465942 1560.106934,1037.981689 
	C1560.182373,1029.326294 1560.748535,1020.673523 1560.748169,1012.019592 
	C1560.747803,999.606934 1560.485596,987.192810 1560.202515,974.782410 
	C1560.118042,971.076477 1560.944092,968.899902 1565.321411,968.970886 
	C1583.786377,969.270325 1580.709473,966.765442 1580.975098,984.010315 
	C1581.095581,991.838501 1580.995728,999.669983 1580.995850,1008.000000 
z"/>
<path fill="#49011B" opacity="1.000000" stroke="none" 
	d="
M1812.786011,1059.033447 
	C1818.342773,1062.581543 1818.027100,1069.517090 1816.408081,1073.557983 
	C1814.755127,1077.683594 1809.761963,1079.700439 1804.044312,1078.868774 
	C1798.132446,1078.008911 1794.314941,1072.666992 1795.220581,1066.521851 
	C1796.186279,1059.969849 1800.937134,1056.477295 1807.667114,1057.504883 
	C1809.290405,1057.752686 1810.852051,1058.403687 1812.786011,1059.033447 
z"/>
<path fill="#49011B" opacity="1.000000" stroke="none" 
	d="
M1837.186279,1078.932129 
	C1827.626587,1076.937012 1823.656494,1068.736450 1828.537476,1061.904175 
	C1831.544678,1057.694580 1837.377441,1056.323120 1842.826904,1058.544556 
	C1847.340576,1060.384521 1849.599854,1064.642456 1848.870728,1069.935059 
	C1848.078247,1075.688110 1844.670288,1078.411621 1837.186279,1078.932129 
z"/>
<path fill="#49011B" opacity="1.000000" stroke="none" 
	d="
M1575.720215,961.050903 
	C1566.332153,963.323975 1560.344238,959.820618 1560.037231,952.240601 
	C1559.785889,946.036377 1562.185425,942.125122 1566.892456,941.065979 
	C1573.467285,939.586609 1579.291748,941.940491 1581.299072,946.888123 
	C1583.441650,952.168762 1581.393311,957.674072 1575.720215,961.050903 
z"/>
<path fill="#49011B" opacity="1.000000" stroke="none" 
	d="
M1693.327393,946.001709 
	C1702.406372,944.368591 1707.926636,948.048096 1711.105713,955.986572 
	C1711.879272,957.918274 1713.175659,959.640564 1714.246582,961.485107 
	C1708.505737,964.257507 1703.120728,963.405945 1699.056274,959.577942 
	C1694.980713,955.739563 1690.755249,952.060425 1686.595215,948.311584 
	C1686.886475,947.718201 1687.177612,947.124756 1687.468872,946.531372 
	C1689.274536,946.354980 1691.080200,946.178589 1693.327393,946.001709 
z"/>
<path fill="#000000" opacity="1.000000" stroke="none" 
	d="
M1081.691772,503.326965 
	C1076.274292,482.525665 1070.525391,462.207550 1065.960571,441.626831 
	C1061.647705,422.181488 1058.068115,402.536560 1055.121826,382.836487 
	C1052.683960,366.535706 1051.035767,350.059845 1050.125488,333.601379 
	C1048.879028,311.063324 1047.420166,288.413055 1048.421875,265.916382 
	C1049.140015,249.787048 1052.871460,233.613724 1056.806519,217.846268 
	C1063.196899,192.239639 1075.353394,169.130615 1091.504395,148.320023 
	C1099.475952,138.048691 1108.787720,128.988358 1118.828857,120.504440 
	C1135.646729,106.294838 1154.468506,95.988518 1175.263428,89.629669 
	C1187.432617,85.908501 1200.214111,83.825920 1212.873047,82.185974 
	C1223.033081,80.869759 1233.458740,80.617119 1243.704468,81.130905 
	C1277.016724,82.801422 1307.426025,92.861626 1333.630615,114.116440 
	C1359.875732,135.404129 1376.040771,162.920471 1382.708740,195.817154 
	C1388.143921,222.630692 1384.863037,248.991562 1373.837891,273.849243 
	C1364.595703,294.687073 1353.818237,314.858887 1343.346436,335.132446 
	C1331.565552,357.940643 1321.100830,381.322937 1314.485718,406.119873 
	C1310.860596,419.708893 1308.376709,433.795624 1307.239502,447.808990 
	C1305.603516,467.967834 1304.940186,488.274353 1305.220093,508.499023 
	C1305.459961,525.831116 1307.145386,543.187622 1309.034668,560.440918 
	C1311.204468,580.257263 1313.783081,600.061401 1317.164917,619.702026 
	C1319.756104,634.750061 1323.599365,649.604675 1327.364014,664.423828 
	C1335.180664,695.194031 1343.777100,725.773132 1351.146729,756.647095 
	C1355.648926,775.508240 1359.239380,794.667419 1361.832520,813.882568 
	C1364.722412,835.296692 1366.576538,856.893372 1367.838623,878.471558 
	C1368.963623,897.701782 1369.466431,917.045105 1368.749390,936.282837 
	C1368.143066,952.549683 1365.230469,968.747559 1359.734375,984.205933 
	C1355.612793,995.798584 1351.270020,1007.377197 1346.025513,1018.490051 
	C1339.044556,1033.282227 1329.323486,1046.335449 1318.767456,1058.889771 
	C1306.997925,1072.887329 1293.060303,1084.196411 1277.611084,1093.479370 
	C1260.058472,1104.026367 1240.962891,1111.058105 1220.753784,1115.057495 
	C1202.999512,1118.570923 1185.016113,1119.078857 1167.211182,1117.748169 
	C1136.265625,1115.435303 1108.050659,1105.034912 1083.655884,1085.222412 
	C1067.967896,1072.481201 1055.498047,1057.144775 1046.658691,1039.064575 
	C1039.017090,1023.434143 1034.381348,1006.907593 1032.877319,989.388855 
	C1030.391724,960.433777 1038.020386,933.879761 1050.797241,908.458252 
	C1060.865723,888.425537 1071.657715,868.753845 1081.589233,848.655457 
	C1094.739868,822.042908 1104.106812,794.094604 1108.891357,764.737915 
	C1112.403076,743.191772 1112.584229,721.427002 1111.916138,699.690552 
	C1111.295532,679.500366 1110.761963,659.254272 1108.781982,639.171631 
	C1105.807739,609.003662 1100.916138,579.080627 1093.365479,549.652649 
	C1089.441040,534.358032 1085.700806,519.016113 1081.691772,503.326965 
z"/>
<path fill="#000000" opacity="1.000000" stroke="none" 
	d="
M294.000153,694.000000 
	C294.000214,762.984741 294.000214,831.469543 294.000214,899.954285 
	C293.808807,899.982300 293.617401,900.010254 293.425964,900.038269 
	C287.959076,878.823975 282.642822,857.569336 276.986511,836.405701 
	C270.183350,810.950989 262.823486,785.643127 256.189209,760.145630 
	C247.188950,725.555237 238.574738,690.863525 229.936890,656.179871 
	C224.281113,633.470276 220.485062,610.416138 222.189423,586.980286 
	C223.274628,572.057922 225.443161,557.113037 228.474487,542.457153 
	C233.040039,520.383545 238.413498,498.456635 244.122833,476.645203 
	C251.292053,449.256409 259.337097,422.098022 266.656891,394.747223 
	C275.255615,362.617828 283.490295,330.390961 291.848175,298.197357 
	C292.375244,296.167053 292.602478,294.058899 294.000092,292.049561 
	C294.000092,425.866394 294.000092,559.683167 294.000153,694.000000 
z"/>
<path fill="#000000" opacity="1.000000" stroke="none" 
	d="
M1915.350586,1138.105225 
	C1908.847168,1148.899658 1901.663940,1151.816528 1891.580688,1147.870972 
	C1884.382080,1145.054321 1881.425415,1139.007935 1880.563599,1131.932373 
	C1879.409668,1122.458862 1878.721191,1112.697144 1885.707520,1104.951660 
	C1895.489990,1094.105835 1911.046143,1097.562378 1915.913452,1111.394043 
	C1919.010620,1120.195679 1918.561035,1129.016479 1915.350586,1138.105225 
z"/>
<path fill="#000000" opacity="1.000000" stroke="none" 
	d="
M1613.903076,1125.767334 
	C1612.184082,1131.520508 1611.041504,1137.095947 1608.648926,1142.070312 
	C1606.053955,1147.465332 1600.624512,1149.705444 1594.880127,1149.491211 
	C1588.423096,1149.250366 1582.763062,1146.614746 1580.145874,1140.132446 
	C1575.575439,1128.811646 1574.923462,1117.291260 1581.174561,1106.469238 
	C1587.136719,1096.147339 1602.046143,1096.060303 1608.902100,1105.830322 
	C1613.018311,1111.696289 1613.632446,1118.470947 1613.903076,1125.767334 
z"/>
</svg>
