<svg xmlns="http://www.w3.org/2000/svg" xmlns:xlink="http://www.w3.org/1999/xlink" width="2000" zoomAndPan="magnify" viewBox="0 0 1500 899.99999" height="1200" preserveAspectRatio="xMidYMid meet" version="1.0"><defs><g/><clipPath id="d207545051"><path d="M 0.238281 0.558594 L 1125 0.558594 L 1125 896 L 0.238281 896 Z M 0.238281 0.558594 " clip-rule="nonzero"/></clipPath><clipPath id="bf347e7d34"><path d="M 184 0.558594 L 638 0.558594 L 638 852 L 184 852 Z M 184 0.558594 " clip-rule="nonzero"/></clipPath><clipPath id="38b56a69c5"><path d="M 620 0.558594 L 1111 0.558594 L 1111 869 L 620 869 Z M 620 0.558594 " clip-rule="nonzero"/></clipPath><clipPath id="fa4963297e"><rect x="0" width="1125" y="0" height="896"/></clipPath><clipPath id="9f5d4f575e"><path d="M 1127 674 L 1425.121094 674 L 1425.121094 891 L 1127 891 Z M 1127 674 " clip-rule="nonzero"/></clipPath><clipPath id="a9790c883b"><rect x="0" width="299" y="0" height="217"/></clipPath><clipPath id="24265bd565"><rect x="0" width="1426" y="0" height="896"/></clipPath></defs><g transform="matrix(1, 0, 0, 1, 36, 4)"><g clip-path="url(#24265bd565)"><g clip-path="url(#d207545051)"><g transform="matrix(1, 0, 0, 1, -0.000000000000007105, 0.00000000000010747)"><g clip-path="url(#fa4963297e)"><g fill="#9b001c" fill-opacity="1"><g transform="translate(3.92078, 851.479593)"><g><path d="M 28.359375 0 C 20.578125 -13.90625 16.6875 -35.316406 16.6875 -64.234375 C 16.6875 -92.585938 20.300781 -123.585938 27.53125 -157.234375 C 34.757812 -190.878906 43.097656 -224.519531 52.546875 -258.15625 C 62.003906 -291.800781 70.347656 -322.523438 77.578125 -350.328125 C 84.804688 -378.140625 88.421875 -400.382812 88.421875 -417.0625 C 88.421875 -433.75 84.804688 -456.128906 77.578125 -484.203125 C 70.347656 -512.285156 62.003906 -543.007812 52.546875 -576.375 C 43.097656 -609.738281 34.757812 -643.242188 27.53125 -676.890625 C 20.300781 -710.535156 16.6875 -741.535156 16.6875 -769.890625 C 16.6875 -798.804688 20.578125 -820.21875 28.359375 -834.125 L 185.171875 -834.125 C 192.960938 -820.21875 196.859375 -798.804688 196.859375 -769.890625 C 196.859375 -741.535156 193.242188 -710.535156 186.015625 -676.890625 C 178.785156 -643.242188 170.441406 -609.738281 160.984375 -576.375 C 151.535156 -543.007812 143.195312 -512.285156 135.96875 -484.203125 C 128.738281 -456.128906 125.125 -433.75 125.125 -417.0625 C 125.125 -400.382812 128.738281 -378.140625 135.96875 -350.328125 C 143.195312 -322.523438 151.535156 -291.800781 160.984375 -258.15625 C 170.441406 -224.519531 178.785156 -190.878906 186.015625 -157.234375 C 193.242188 -123.585938 196.859375 -92.585938 196.859375 -64.234375 C 196.859375 -35.316406 192.960938 -13.90625 185.171875 0 Z M 28.359375 0 "/></g></g></g><g clip-path="url(#bf347e7d34)"><g fill="#9b001c" fill-opacity="1"><g transform="translate(159.062364, 851.479593)"><g><path d="M 186.84375 0 L 25.03125 0 L 25.03125 -834.125 C 42.820312 -823.5625 60.195312 -815.359375 77.15625 -809.515625 C 94.113281 -803.679688 114.550781 -800.765625 138.46875 -800.765625 C 159.601562 -800.765625 177.535156 -803.265625 192.265625 -808.265625 C 207.003906 -813.273438 220.769531 -819.113281 233.5625 -825.78125 C 246.351562 -832.457031 259.5625 -838.296875 273.1875 -843.296875 C 286.8125 -848.304688 303.078125 -850.8125 321.984375 -850.8125 C 358.679688 -850.8125 388.566406 -840.519531 411.640625 -819.9375 C 434.722656 -799.363281 451.546875 -770.304688 462.109375 -732.765625 C 472.679688 -695.234375 477.96875 -651.164062 477.96875 -600.5625 L 477.96875 0 L 315.3125 0 L 315.3125 -477.125 C 315.3125 -504.914062 318.785156 -529.097656 325.734375 -549.671875 C 332.679688 -570.253906 341.296875 -588.46875 351.578125 -604.3125 C 361.867188 -620.164062 372.019531 -635.039062 382.03125 -648.9375 C 392.039062 -662.84375 400.519531 -677.300781 407.46875 -692.3125 C 414.425781 -707.332031 417.90625 -724.296875 417.90625 -743.203125 C 417.90625 -752.660156 416.097656 -761.695312 412.484375 -770.3125 C 408.867188 -778.9375 402.332031 -783.25 392.875 -783.25 C 382.863281 -783.25 373.410156 -779.351562 364.515625 -771.5625 C 355.617188 -763.78125 346.441406 -754.1875 336.984375 -742.78125 C 327.535156 -731.382812 317.25 -719.984375 306.125 -708.578125 C 295.007812 -697.179688 282.222656 -687.585938 267.765625 -679.796875 C 253.304688 -672.015625 236.617188 -668.125 217.703125 -668.125 C 183.785156 -668.125 153.34375 -677.300781 126.375 -695.65625 C 99.40625 -714.007812 76.46875 -740.144531 57.5625 -774.0625 C 57.5625 -746.257812 61.867188 -719.425781 70.484375 -693.5625 C 79.097656 -667.707031 89.941406 -641.847656 103.015625 -615.984375 C 116.085938 -590.128906 129.015625 -563.300781 141.796875 -535.5 C 154.585938 -507.707031 165.289062 -477.960938 173.90625 -446.265625 C 182.53125 -414.566406 186.84375 -379.8125 186.84375 -342 Z M 186.84375 0 "/></g></g></g></g><g clip-path="url(#38b56a69c5)"><g fill="#9b001c" fill-opacity="1"><g transform="translate(603.639642, 851.479593)"><g><path d="M 261.921875 16.6875 C 186.296875 16.6875 126.515625 -18.625 82.578125 -89.25 C 38.648438 -159.875 16.6875 -269.144531 16.6875 -417.0625 C 16.6875 -564.976562 38.648438 -674.25 82.578125 -744.875 C 126.515625 -815.5 186.296875 -850.8125 261.921875 -850.8125 C 338.109375 -850.8125 398.023438 -815.5 441.671875 -744.875 C 485.328125 -674.25 507.15625 -564.976562 507.15625 -417.0625 C 507.15625 -269.144531 485.328125 -159.875 441.671875 -89.25 C 398.023438 -18.625 338.109375 16.6875 261.921875 16.6875 Z M 133.46875 -130.125 C 133.46875 -112.882812 137.773438 -96.335938 146.390625 -80.484375 C 155.015625 -64.640625 167.804688 -51.4375 184.765625 -40.875 C 201.722656 -30.3125 222.4375 -25.03125 246.90625 -25.03125 C 278.050781 -25.03125 303.910156 -32.535156 324.484375 -47.546875 C 345.054688 -62.554688 360.625 -81.460938 371.1875 -104.265625 C 381.757812 -127.066406 387.046875 -150.144531 387.046875 -173.5 C 387.046875 -203.53125 385.375 -229.523438 382.03125 -251.484375 C 378.695312 -273.453125 374.664062 -293.472656 369.9375 -311.546875 C 365.207031 -329.617188 360.476562 -347.550781 355.75 -365.34375 C 351.03125 -383.144531 347 -403.023438 343.65625 -424.984375 C 340.320312 -446.953125 338.65625 -472.675781 338.65625 -502.15625 C 338.65625 -527.71875 341.710938 -549.394531 347.828125 -567.1875 C 353.953125 -584.988281 360.90625 -600.835938 368.6875 -614.734375 C 376.476562 -628.640625 383.429688 -642.125 389.546875 -655.1875 C 395.660156 -668.257812 398.71875 -682.863281 398.71875 -699 C 398.71875 -716.238281 394.40625 -732.78125 385.78125 -748.625 C 377.164062 -764.476562 364.378906 -777.6875 347.421875 -788.25 C 330.460938 -798.8125 309.46875 -804.09375 284.4375 -804.09375 C 253.851562 -804.09375 228.273438 -796.582031 207.703125 -781.5625 C 187.128906 -766.550781 171.554688 -747.785156 160.984375 -725.265625 C 150.421875 -702.742188 145.140625 -679.53125 145.140625 -655.625 C 145.140625 -625.59375 146.804688 -599.59375 150.140625 -577.625 C 153.484375 -555.65625 157.515625 -535.632812 162.234375 -517.5625 C 166.960938 -499.5 171.691406 -481.570312 176.421875 -463.78125 C 181.148438 -445.988281 185.179688 -426.109375 188.515625 -404.140625 C 191.847656 -382.171875 193.515625 -356.453125 193.515625 -326.984375 C 193.515625 -301.398438 190.457031 -279.710938 184.34375 -261.921875 C 178.226562 -244.128906 171.273438 -228.28125 163.484375 -214.375 C 155.703125 -200.46875 148.753906 -186.976562 142.640625 -173.90625 C 136.523438 -160.84375 133.46875 -146.25 133.46875 -130.125 Z M 133.46875 -130.125 "/></g></g></g></g></g></g></g><g clip-path="url(#9f5d4f575e)"><g transform="matrix(1, 0, 0, 1, 1127, 674)"><g clip-path="url(#a9790c883b)"><g fill="#49011b" fill-opacity="1"><g transform="translate(0.874088, 96.332089)"><g><path d="M 8.234375 -75.90625 C 9.734375 -77.375 11.695312 -78.109375 14.125 -78.109375 C 16.550781 -78.109375 18.507812 -77.375 20 -75.90625 C 21.5 -74.445312 22.25 -72.578125 22.25 -70.296875 C 22.25 -67.941406 21.5 -66.050781 20 -64.625 C 18.507812 -63.195312 16.550781 -62.484375 14.125 -62.484375 C 11.695312 -62.484375 9.734375 -63.195312 8.234375 -64.625 C 6.734375 -66.050781 5.984375 -67.941406 5.984375 -70.296875 C 5.984375 -72.578125 6.734375 -74.445312 8.234375 -75.90625 Z M 21.5 0 L 6.734375 0 L 6.734375 -56.921875 L 21.5 -56.921875 Z M 21.5 0 "/></g></g></g><g fill="#49011b" fill-opacity="1"><g transform="translate(24.624452, 96.332089)"><g><path d="M 59.8125 -42.484375 C 60.09375 -39.910156 60.234375 -36.445312 60.234375 -32.09375 L 60.234375 0 L 45.46875 0 L 45.46875 -30.0625 C 45.46875 -33.414062 45.398438 -36.054688 45.265625 -37.984375 C 44.765625 -44.691406 41.125 -48.046875 34.34375 -48.046875 C 30.488281 -48.046875 27.382812 -46.242188 25.03125 -42.640625 C 22.675781 -39.035156 21.5 -33.488281 21.5 -26 L 21.5 0 L 6.734375 0 L 6.734375 -56.921875 L 21.5 -56.921875 L 21.5 -47.71875 L 25.890625 -54.46875 C 29.597656 -57.101562 34.164062 -58.421875 39.59375 -58.421875 C 45.582031 -58.421875 50.304688 -57.03125 53.765625 -54.25 C 57.222656 -51.46875 59.238281 -47.546875 59.8125 -42.484375 Z M 59.8125 -42.484375 "/></g></g></g><g fill="#49011b" fill-opacity="1"><g transform="translate(86.356705, 96.332089)"><g><path d="M 28.359375 -61.53125 L 15.1875 -74.15625 L 28.46875 -74.15625 L 36.703125 -61.53125 Z M 58.421875 -29.640625 C 58.421875 -27.566406 58.347656 -25.890625 58.203125 -24.609375 L 17.765625 -24.609375 C 18.617188 -14.117188 23.003906 -8.875 30.921875 -8.875 C 34.128906 -8.875 36.785156 -9.726562 38.890625 -11.4375 C 40.992188 -13.15625 42.296875 -15.515625 42.796875 -18.515625 L 57.5625 -18.515625 C 56.132812 -12.023438 53.015625 -7.066406 48.203125 -3.640625 C 43.390625 -0.210938 37.523438 1.5 30.609375 1.5 C 22.398438 1.5 15.726562 -1.046875 10.59375 -6.140625 C 5.457031 -11.242188 2.890625 -18.613281 2.890625 -28.25 C 2.890625 -37.09375 5.546875 -44.332031 10.859375 -49.96875 C 16.171875 -55.601562 23.144531 -58.421875 31.78125 -58.421875 C 40.125 -58.421875 46.648438 -55.671875 51.359375 -50.171875 C 56.066406 -44.679688 58.421875 -37.835938 58.421875 -29.640625 Z M 31.140625 -48.046875 C 23.785156 -48.046875 19.46875 -43.441406 18.1875 -34.234375 L 43.234375 -34.234375 C 42.234375 -43.441406 38.203125 -48.046875 31.140625 -48.046875 Z M 31.140625 -48.046875 "/></g></g></g><g fill="#49011b" fill-opacity="1"><g transform="translate(143.488349, 96.332089)"><g><path d="M 27.078125 -58.421875 C 33.640625 -58.421875 38.878906 -56.78125 42.796875 -53.5 C 46.722656 -50.21875 49.003906 -45.867188 49.640625 -40.453125 L 34.875 -40.453125 C 33.882812 -45.941406 30.960938 -48.6875 26.109375 -48.6875 C 23.960938 -48.6875 22.300781 -48.132812 21.125 -47.03125 C 19.945312 -45.925781 19.359375 -44.445312 19.359375 -42.59375 C 19.359375 -40.445312 20.320312 -38.734375 22.25 -37.453125 C 24.175781 -36.171875 27.53125 -34.921875 32.3125 -33.703125 C 38.519531 -32.128906 43.15625 -29.953125 46.21875 -27.171875 C 49.289062 -24.390625 50.828125 -20.503906 50.828125 -15.515625 C 50.828125 -10.023438 48.628906 -5.816406 44.234375 -2.890625 C 39.847656 0.0351562 34.234375 1.5 27.390625 1.5 C 20.253906 1.5 14.472656 -0.0664062 10.046875 -3.203125 C 5.628906 -6.347656 3.03125 -11.054688 2.25 -17.328125 L 17.015625 -17.328125 C 17.585938 -14.335938 18.816406 -12.070312 20.703125 -10.53125 C 22.597656 -9 24.898438 -8.234375 27.609375 -8.234375 C 30.097656 -8.234375 32.109375 -8.769531 33.640625 -9.84375 C 35.179688 -10.914062 35.953125 -12.445312 35.953125 -14.4375 C 35.953125 -16.65625 34.914062 -18.457031 32.84375 -19.84375 C 30.78125 -21.238281 27.285156 -22.539062 22.359375 -23.75 C 16.585938 -25.175781 12.164062 -27.226562 9.09375 -29.90625 C 6.03125 -32.582031 4.5 -36.238281 4.5 -40.875 C 4.5 -46.289062 6.546875 -50.566406 10.640625 -53.703125 C 14.742188 -56.847656 20.222656 -58.421875 27.078125 -58.421875 Z M 27.078125 -58.421875 "/></g></g></g><g fill="#49011b" fill-opacity="1"><g transform="translate(0.874088, 184.634799)"><g><path d="M 10.703125 -50.125 C 15.910156 -55.65625 23.148438 -58.421875 32.421875 -58.421875 C 41.691406 -58.421875 48.929688 -55.65625 54.140625 -50.125 C 59.347656 -44.601562 61.953125 -37.382812 61.953125 -28.46875 C 61.953125 -19.613281 59.347656 -12.40625 54.140625 -6.84375 C 48.929688 -1.28125 41.691406 1.5 32.421875 1.5 C 23.148438 1.5 15.910156 -1.28125 10.703125 -6.84375 C 5.492188 -12.40625 2.890625 -19.613281 2.890625 -28.46875 C 2.890625 -37.382812 5.492188 -44.601562 10.703125 -50.125 Z M 21.984375 -14.0625 C 24.515625 -10.601562 27.992188 -8.875 32.421875 -8.875 C 36.847656 -8.875 40.328125 -10.601562 42.859375 -14.0625 C 45.390625 -17.53125 46.65625 -22.328125 46.65625 -28.453125 C 46.65625 -34.585938 45.390625 -39.382812 42.859375 -42.84375 C 40.328125 -46.3125 36.847656 -48.046875 32.421875 -48.046875 C 27.992188 -48.046875 24.515625 -46.3125 21.984375 -42.84375 C 19.453125 -39.382812 18.1875 -34.585938 18.1875 -28.453125 C 18.1875 -22.328125 19.453125 -17.53125 21.984375 -14.0625 Z M 21.984375 -14.0625 "/></g></g></g><g fill="#49011b" fill-opacity="1"><g transform="translate(61.001475, 184.634799)"><g><path d="M 59.28125 -56.921875 L 59.28125 0 L 44.515625 0 L 44.515625 -9.625 L 40.125 -2.359375 C 36.269531 0.210938 31.703125 1.5 26.421875 1.5 C 20.785156 1.5 16.203125 0.128906 12.671875 -2.609375 C 9.148438 -5.359375 7.03125 -8.804688 6.3125 -12.953125 C 5.957031 -15.367188 5.78125 -18.828125 5.78125 -23.328125 L 5.78125 -56.921875 L 20.546875 -56.921875 L 20.546875 -26.421875 C 20.546875 -23.785156 20.6875 -21.1875 20.96875 -18.625 C 21.757812 -12.195312 25.4375 -8.984375 32 -8.984375 C 35.84375 -8.984375 38.890625 -10.585938 41.140625 -13.796875 C 43.390625 -17.015625 44.515625 -21.722656 44.515625 -27.921875 L 44.515625 -56.921875 Z M 59.28125 -56.921875 "/></g></g></g><g fill="#49011b" fill-opacity="1"><g transform="translate(122.412804, 184.634799)"><g><path d="M 39.796875 0 L 38.734375 -8.34375 L 35.953125 -2.25 C 32.242188 0.25 27.535156 1.5 21.828125 1.5 C 16.617188 1.5 12.265625 0.0351562 8.765625 -2.890625 C 5.273438 -5.816406 3.53125 -9.882812 3.53125 -15.09375 C 3.53125 -21.363281 6.1875 -26.191406 11.5 -29.578125 C 16.8125 -32.972656 24.601562 -34.671875 34.875 -34.671875 L 38.515625 -34.671875 L 38.515625 -35.84375 C 38.515625 -38.125 38.445312 -39.90625 38.3125 -41.1875 C 37.8125 -45.757812 34.882812 -48.046875 29.53125 -48.046875 C 23.613281 -48.046875 20.441406 -44.832031 20.015625 -38.40625 L 5.671875 -38.3125 C 5.878906 -44.582031 8.25 -49.5 12.78125 -53.0625 C 17.3125 -56.632812 23.070312 -58.421875 30.0625 -58.421875 C 44.257812 -58.421875 51.859375 -52.820312 52.859375 -41.625 C 53.066406 -38.914062 53.171875 -35.988281 53.171875 -32.84375 L 53.171875 -14.4375 C 53.171875 -10.09375 53.53125 -5.28125 54.25 0 Z M 27.5 -8.875 C 30.632812 -8.875 33.253906 -9.941406 35.359375 -12.078125 C 37.460938 -14.222656 38.515625 -17.1875 38.515625 -20.96875 L 38.515625 -25.578125 C 25.390625 -26.503906 18.828125 -23.398438 18.828125 -16.265625 C 18.828125 -11.335938 21.71875 -8.875 27.5 -8.875 Z M 27.5 -8.875 "/></g></g></g><g fill="#49011b" fill-opacity="1"><g transform="translate(177.832524, 184.634799)"><g><path d="M 13.796875 -78.109375 C 19.148438 -78.109375 21.828125 -75.503906 21.828125 -70.296875 C 21.828125 -65.085938 19.148438 -62.484375 13.796875 -62.484375 C 8.378906 -62.484375 5.671875 -65.085938 5.671875 -70.296875 C 5.671875 -75.503906 8.378906 -78.109375 13.796875 -78.109375 Z M 21.078125 -56.921875 L 21.078125 1.28125 C 21.078125 3.28125 21.003906 5.5625 20.859375 8.125 C 20.503906 12.832031 18.828125 16.398438 15.828125 18.828125 C 12.835938 21.253906 8.203125 22.46875 1.921875 22.46875 C -0.0664062 22.46875 -1.882812 22.363281 -3.53125 22.15625 L -3.53125 11.65625 C -0.320312 11.945312 2.03125 11.695312 3.53125 10.90625 C 5.03125 10.125 5.921875 8.628906 6.203125 6.421875 C 6.347656 4.421875 6.421875 2.78125 6.421875 1.5 L 6.421875 -56.921875 Z M 21.078125 -56.921875 "/></g></g></g><g fill="#49011b" fill-opacity="1"><g transform="translate(200.940917, 184.634799)"><g><path d="M 8.234375 -75.90625 C 9.734375 -77.375 11.695312 -78.109375 14.125 -78.109375 C 16.550781 -78.109375 18.507812 -77.375 20 -75.90625 C 21.5 -74.445312 22.25 -72.578125 22.25 -70.296875 C 22.25 -67.941406 21.5 -66.050781 20 -64.625 C 18.507812 -63.195312 16.550781 -62.484375 14.125 -62.484375 C 11.695312 -62.484375 9.734375 -63.195312 8.234375 -64.625 C 6.734375 -66.050781 5.984375 -67.941406 5.984375 -70.296875 C 5.984375 -72.578125 6.734375 -74.445312 8.234375 -75.90625 Z M 21.5 0 L 6.734375 0 L 6.734375 -56.921875 L 21.5 -56.921875 Z M 21.5 0 "/></g></g></g><g fill="#49011b" fill-opacity="1"><g transform="translate(224.691282, 184.634799)"><g><path d="M 40.546875 -58.421875 C 48.398438 -58.421875 54.585938 -55.742188 59.109375 -50.390625 C 63.640625 -45.046875 65.90625 -38.09375 65.90625 -29.53125 C 65.90625 -19.6875 63.300781 -12.050781 58.09375 -6.625 C 52.894531 -1.207031 46.40625 1.5 38.625 1.5 C 32.78125 1.5 28.320312 0.425781 25.25 -1.71875 L 21.5 -7.59375 L 21.5 0 L 6.734375 0 L 6.734375 -78.640625 L 21.5 -78.640625 L 21.5 -48.25 L 25.78125 -54.46875 C 29.0625 -57.101562 33.984375 -58.421875 40.546875 -58.421875 Z M 35.734375 -8.875 C 40.160156 -8.875 43.742188 -10.566406 46.484375 -13.953125 C 49.234375 -17.347656 50.609375 -22.21875 50.609375 -28.5625 C 50.609375 -34.414062 49.304688 -39.125 46.703125 -42.6875 C 44.097656 -46.257812 40.617188 -48.046875 36.265625 -48.046875 C 31.847656 -48.046875 28.28125 -46.53125 25.5625 -43.5 C 22.851562 -40.46875 21.5 -35.671875 21.5 -29.109375 L 21.5 -26.421875 C 21.5 -20.429688 22.890625 -16.007812 25.671875 -13.15625 C 28.460938 -10.300781 31.816406 -8.875 35.734375 -8.875 Z M 35.734375 -8.875 "/></g></g></g></g></g></g></g></g></svg>